<svg width="200" height="200" viewBox="0 0 200 200" fill="none" xmlns="http://www.w3.org/2000/svg">
  <rect width="200" height="200" rx="24" fill="#1a1a2e"/>
  <rect width="200" height="200" rx="24" fill="url(#apex-gradient)"/>
  <defs>
    <linearGradient id="apex-gradient" x1="0" y1="0" x2="200" y2="200" gradientUnits="userSpaceOnUse">
      <stop offset="0%" stop-color="#cd3333"/>
      <stop offset="50%" stop-color="#dc2626"/>
      <stop offset="100%" stop-color="#991b1b"/>
    </linearGradient>
  </defs>
  <polygon points="100,30 150,100 120,105 145,170 100,125 55,170 80,105 50,100" fill="#cd3333"/>
  <polygon points="100,50 135,100 115,103 130,145 100,115 70,145 85,103 65,100" fill="#ffffff"/>
  <polygon points="100,70 115,100 105,102 112,125 100,108 88,125 95,102 85,100" fill="#cd3333"/>
  <text x="100" y="185" text-anchor="middle" fill="#ffffff" font-family="Arial Black, sans-serif" font-size="11" font-weight="900" letter-spacing="0.5">APEX LEGENDS</text>
</svg>
